<svg width="40" height="40" viewBox="0 0 40 40" fill="none" xmlns="http://www.w3.org/2000/svg">
<g clip-path="url(#clip0_175_507)">
<path d="M20 9.99996C21.8333 9.99996 23.3333 11.5 23.3333 13.3333C23.3333 15.1666 21.8333 16.6666 20 16.6666C18.1667 16.6666 16.6667 15.1666 16.6667 13.3333C16.6667 11.5 18.1667 9.99996 20 9.99996ZM20 26.6666C24.5 26.6666 29.6667 28.8166 30 30H10C10.3833 28.8 15.5167 26.6666 20 26.6666ZM20 6.66663C16.3167 6.66663 13.3333 9.64996 13.3333 13.3333C13.3333 17.0166 16.3167 20 20 20C23.6833 20 26.6667 17.0166 26.6667 13.3333C26.6667 9.64996 23.6833 6.66663 20 6.66663ZM20 23.3333C15.55 23.3333 6.66667 25.5666 6.66667 30V33.3333H33.3333V30C33.3333 25.5666 24.45 23.3333 20 23.3333Z" fill="#6e6e6e"/>
</g>
<defs>
<clipPath id="clip0_175_507">
<rect width="40" height="40" fill="white"/>
</clipPath>
</defs>
</svg>
